<svg width="37" height="29" viewBox="0 0 37 29" fill="none" xmlns="http://www.w3.org/2000/svg">
<rect x="0.902832" width="35.9995" height="28.2158" rx="4" fill="#D0D9EF"/>
<path fill-rule="evenodd" clip-rule="evenodd" d="M9.65899 5.86426H12.5779C12.8232 5.86426 13.2136 5.9461 13.5138 6.16227C13.7631 6.34174 14.0103 6.64962 14.0103 7.29666C14.0103 7.9437 13.7631 8.25158 13.5138 8.43104C13.2136 8.64722 12.8232 8.72906 12.5779 8.72906H0.902344V10.7291H7.68652V16.5128H0.902344V18.5128H11.6049C12.0935 18.5128 12.8487 18.6676 13.453 19.1027C14.0063 19.5011 14.4967 20.1738 14.4967 21.4046C14.4967 22.6354 14.0063 23.3082 13.453 23.7066C12.8487 24.1416 12.0935 24.2965 11.6049 24.2965H10.1455V26.2965H11.6049C12.4136 26.2965 13.6043 26.0621 14.6216 25.3296C15.6899 24.5604 16.4967 23.2873 16.4967 21.4046C16.4967 19.522 15.6899 18.2488 14.6216 17.4796C13.6043 16.7471 12.4136 16.5128 11.6049 16.5128H9.68652V10.7291H12.5779C13.1433 10.7291 13.9692 10.5677 14.6824 10.0541C15.4467 9.50386 16.0103 8.59554 16.0103 7.29666C16.0103 5.99778 15.4467 5.08946 14.6824 4.5392C13.9692 4.02566 13.1433 3.86426 12.5779 3.86426H9.65899V5.86426ZM28.1459 5.86426H25.227C24.9816 5.86426 24.5913 5.9461 24.291 6.16227C24.0418 6.34174 23.7946 6.64962 23.7946 7.29666C23.7946 7.9437 24.0418 8.25158 24.291 8.43104C24.5913 8.64722 24.9816 8.72906 25.227 8.72906H36.9023V10.7291H30.1208V16.5128H36.9023V18.5128H26.1998C25.7112 18.5128 24.956 18.6676 24.3517 19.1027C23.7984 19.5011 23.3079 20.1738 23.3079 21.4046C23.3079 22.6354 23.7984 23.3082 24.3517 23.7066C24.956 24.1416 25.7112 24.2965 26.1998 24.2965H27.6592V26.2965H26.1998C25.3911 26.2965 24.2004 26.0621 23.1831 25.3296C22.1148 24.5604 21.3079 23.2873 21.3079 21.4046C21.3079 19.522 22.1148 18.2488 23.1831 17.4796C24.2004 16.7471 25.3911 16.5128 26.1998 16.5128H28.1208V10.7291H25.227C24.6615 10.7291 23.8357 10.5677 23.1224 10.0541C22.3582 9.50386 21.7946 8.59554 21.7946 7.29666C21.7946 5.99778 22.3582 5.08946 23.1224 4.5392C23.8357 4.02566 24.6615 3.86426 25.227 3.86426H28.1459V5.86426Z" fill="white"/>
</svg>
